<svg width="20" height="20" viewBox="0 0 20 20" fill="none" xmlns="http://www.w3.org/2000/svg">
<g clip-path="url(#clip0_474_1334)">
<path d="M2.14244 2.85718C1.76355 2.85718 1.4002 3.00769 1.13229 3.27559C0.864377 3.54351 0.713867 3.90686 0.713867 4.28575V17.8572C0.713867 18.236 0.864377 18.5995 1.13229 18.8673C1.4002 19.1352 1.76355 19.2857 2.14244 19.2857H17.8567C18.2356 19.2857 18.599 19.1352 18.8669 18.8673C19.1347 18.5995 19.2853 18.236 19.2853 17.8572V4.28575C19.2853 3.90686 19.1347 3.54351 18.8669 3.27559C18.599 3.00769 18.2356 2.85718 17.8567 2.85718H14.9996" stroke="#021939" stroke-width="1.42857" stroke-linecap="round" stroke-linejoin="round"/>
<path d="M0.713867 7.85718H19.2853" stroke="#021939" stroke-width="1.42857" stroke-linecap="round" stroke-linejoin="round"/>
<path d="M5 0.714233V4.99995" stroke="#021939" stroke-width="1.42857" stroke-linecap="round" stroke-linejoin="round"/>
<path d="M15 0.714233V4.99995" stroke="#021939" stroke-width="1.42857" stroke-linecap="round" stroke-linejoin="round"/>
<path d="M5 2.85718H12.1429" stroke="#021939" stroke-width="1.42857" stroke-linecap="round" stroke-linejoin="round"/>
</g>
<defs>
<clipPath id="clip0_474_1334">
<rect width="20" height="20" fill="white"/>
</clipPath>
</defs>
</svg>
