<svg width="20" height="20" viewBox="0 0 20 20" fill="none" xmlns="http://www.w3.org/2000/svg">
<path d="M9.61525 18.229C4.86364 18.229 1.00146 14.3668 1.00146 9.61525C1.00146 4.86364 4.86364 1.00146 9.61525 1.00146C14.3668 1.00146 18.229 4.86364 18.229 9.61525C18.229 14.3668 14.3668 18.229 9.61525 18.229ZM9.61525 2.20339C5.52871 2.20339 2.20339 5.52871 2.20339 9.61525C2.20339 13.7018 5.52871 17.0271 9.61525 17.0271C13.7018 17.0271 17.0271 13.7018 17.0271 9.61525C17.0271 5.52871 13.7018 2.20339 9.61525 2.20339Z" fill="#021939"/>
<path d="M12.5883 12.7645C12.4841 12.7645 12.3799 12.7405 12.2838 12.6764L9.79979 11.194C9.1828 10.8254 8.72607 10.0161 8.72607 9.30297V6.01771C8.72607 5.68918 8.99851 5.41675 9.32704 5.41675C9.65556 5.41675 9.928 5.68918 9.928 6.01771V9.30297C9.928 9.59143 10.1684 10.0161 10.4168 10.1603L12.9008 11.6427C13.1892 11.811 13.2774 12.1796 13.1091 12.468C12.9889 12.6603 12.7886 12.7645 12.5883 12.7645Z" fill="#021939"/>
</svg>
