<svg width="18" height="18" viewBox="0 0 18 18" fill="none" xmlns="http://www.w3.org/2000/svg">
<path d="M9.85649 0.666504C10.794 0.669004 11.2698 0.674004 11.6807 0.685671L11.8423 0.691504C12.029 0.698171 12.2132 0.706504 12.4357 0.716504C13.3223 0.758171 13.9273 0.898171 14.4582 1.104C15.0082 1.31567 15.4715 1.60234 15.9348 2.06484C16.3587 2.48128 16.6866 2.98523 16.8957 3.5415C17.1015 4.07234 17.2415 4.67734 17.2832 5.56484C17.2932 5.7865 17.3015 5.97067 17.3082 6.15817L17.3132 6.31984C17.3257 6.72984 17.3307 7.20567 17.3323 8.14317L17.3332 8.76484V9.8565C17.3352 10.4643 17.3288 11.0722 17.314 11.6798L17.309 11.8415C17.3023 12.029 17.294 12.2132 17.284 12.4348C17.2423 13.3223 17.1007 13.9265 16.8957 14.4582C16.6866 15.0144 16.3587 15.5184 15.9348 15.9348C15.5184 16.3587 15.0144 16.6867 14.4582 16.8957C13.9273 17.1015 13.3223 17.2415 12.4357 17.2832L11.8423 17.3082L11.6807 17.3132C11.2698 17.3248 10.794 17.3307 9.85649 17.3323L9.23482 17.3332H8.14399C7.53587 17.3353 6.92776 17.3289 6.31982 17.314L6.15816 17.309C5.96033 17.3015 5.76255 17.2929 5.56482 17.2832C4.67816 17.2415 4.07316 17.1015 3.54149 16.8957C2.98551 16.6866 2.48186 16.3586 2.06566 15.9348C1.64144 15.5185 1.31325 15.0145 1.10399 14.4582C0.898156 13.9273 0.758156 13.3223 0.71649 12.4348L0.69149 11.8415L0.687323 11.6798C0.671961 11.0722 0.665016 10.4643 0.66649 9.8565V8.14317C0.664183 7.53534 0.670295 6.9275 0.684823 6.31984L0.690656 6.15817C0.697323 5.97067 0.705656 5.7865 0.715656 5.56484C0.757323 4.67734 0.897323 4.07317 1.10316 3.5415C1.3129 2.985 1.64168 2.48103 2.06649 2.06484C2.48245 1.64113 2.98581 1.31323 3.54149 1.104C4.07316 0.898171 4.67732 0.758171 5.56482 0.716504C5.78649 0.706504 5.97149 0.698171 6.15816 0.691504L6.31982 0.686504C6.92748 0.671698 7.53532 0.665308 8.14316 0.667337L9.85649 0.666504ZM8.99982 4.83317C7.89475 4.83317 6.83495 5.27216 6.05354 6.05356C5.27214 6.83496 4.83316 7.89477 4.83316 8.99984C4.83316 10.1049 5.27214 11.1647 6.05354 11.9461C6.83495 12.7275 7.89475 13.1665 8.99982 13.1665C10.1049 13.1665 11.1647 12.7275 11.9461 11.9461C12.7275 11.1647 13.1665 10.1049 13.1665 8.99984C13.1665 7.89477 12.7275 6.83496 11.9461 6.05356C11.1647 5.27216 10.1049 4.83317 8.99982 4.83317ZM8.99982 6.49984C9.32813 6.49978 9.65323 6.56439 9.95656 6.68998C10.2599 6.81557 10.5355 6.99967 10.7677 7.23178C10.9999 7.46388 11.1841 7.73945 11.3098 8.04274C11.4355 8.34604 11.5002 8.67112 11.5002 8.99942C11.5003 9.32773 11.4357 9.65283 11.3101 9.95616C11.1845 10.2595 11.0004 10.5351 10.7683 10.7673C10.5362 10.9995 10.2606 11.1837 9.95733 11.3094C9.65404 11.4351 9.32896 11.4998 9.00066 11.4998C8.33762 11.4998 7.70173 11.2364 7.23289 10.7676C6.76405 10.2988 6.50066 9.66288 6.50066 8.99984C6.50066 8.3368 6.76405 7.70091 7.23289 7.23207C7.70173 6.76323 8.33762 6.49984 9.00066 6.49984M13.3757 3.58317C13.0994 3.58317 12.8344 3.69292 12.6391 3.88827C12.4437 4.08362 12.334 4.34857 12.334 4.62484C12.334 4.9011 12.4437 5.16606 12.6391 5.36141C12.8344 5.55676 13.0994 5.6665 13.3757 5.6665C13.6519 5.6665 13.9169 5.55676 14.1122 5.36141C14.3076 5.16606 14.4173 4.9011 14.4173 4.62484C14.4173 4.34857 14.3076 4.08362 14.1122 3.88827C13.9169 3.69292 13.6519 3.58317 13.3757 3.58317Z" fill="white"/>
</svg>
