<svg width="20" height="20" viewBox="0 0 20 20" fill="none" xmlns="http://www.w3.org/2000/svg">
<path d="M16.4284 7.1428C16.4284 11.4285 9.99986 16.4285 9.99986 16.4285C9.99986 16.4285 3.57129 11.4285 3.57129 7.1428C3.57129 3.64138 6.49843 0.714233 9.99986 0.714233C13.5013 0.714233 16.4284 3.64138 16.4284 7.1428Z" stroke="#021939" stroke-width="1.42857" stroke-linecap="round" stroke-linejoin="round"/>
<path d="M10.0003 9.28571C11.1838 9.28571 12.1431 8.32633 12.1431 7.14286C12.1431 5.95939 11.1838 5 10.0003 5C8.81681 5 7.85742 5.95939 7.85742 7.14286C7.85742 8.32633 8.81681 9.28571 10.0003 9.28571Z" stroke="#021939" stroke-width="1.42857" stroke-linecap="round" stroke-linejoin="round"/>
<path d="M15.8243 14.2858H17.1424L19.2853 19.2858H0.713867L2.85672 14.2858H4.17487" stroke="#021939" stroke-width="1.42857" stroke-linecap="round" stroke-linejoin="round"/>
</svg>
