<svg width="191" height="80" viewBox="0 0 191 80" fill="none" xmlns="http://www.w3.org/2000/svg">
<path d="M59.465 62.9171C57.8553 62.9171 56.8216 62.5498 55.5832 61.534L54.7512 62.7894H54.0311L53.9575 57.5316H54.7512C55.0296 58.9531 55.4168 59.8187 56.1944 60.6844C57.0617 61.6426 58.0409 62.0675 59.4106 62.0675C60.4282 62.0675 61.0362 61.863 61.6474 61.3296C62.2011 60.8313 62.4795 60.2212 62.4795 59.4833C62.4795 58.7455 62.1851 58.1545 61.6314 57.7297C61.2442 57.4358 61.113 57.3975 59.7466 57.0461L57.9897 56.6021C55.2728 55.9026 54.2743 54.906 54.2743 52.8936C54.2743 50.5873 55.9 49.0381 58.3225 49.0381C59.6346 49.0381 60.8186 49.4821 61.6858 50.3094L62.4251 49.2042H63.1099L63.3307 53.9988H62.5371C62.2971 53.0565 61.9643 52.2835 61.4298 51.5265C60.6906 50.4755 59.6378 49.9197 58.3449 49.9197C56.7736 49.9197 55.7208 50.8046 55.7208 52.095C55.7208 53.2194 56.4952 53.9413 58.1401 54.3629L60.1178 54.8612C61.5962 55.2286 62.3163 55.5448 62.8155 56.024C63.5355 56.7235 63.9227 57.7041 63.9227 58.8477C63.9227 61.32 62.1851 62.9044 59.4713 62.9044L59.465 62.9171Z" fill="#021939"/>
<path d="M72.2689 62.767V61.237C71.456 62.4188 70.6048 62.9171 69.3856 62.9171C68.2751 62.9171 67.3887 62.4923 66.8895 61.7353C66.611 61.3104 66.5374 60.8888 66.5374 59.9465V55.9633C66.5374 55.1711 66.4254 55.0401 65.7438 55.0401H65.043V54.248L68.2751 54.0435V59.6686C68.2751 60.6844 68.3135 60.8664 68.5535 61.2178C68.7935 61.5851 69.2735 61.7896 69.8464 61.7896C70.752 61.7896 71.4912 61.3104 71.8785 60.4991C72.1569 59.889 72.2657 59.2821 72.2657 58.2312V55.9633C72.2657 55.1711 72.1537 55.0401 71.472 55.0401H70.528V54.248L74.0033 54.0435V60.4991C74.0033 61.681 74.1506 61.8439 75.1682 61.8439H75.6322V62.636L72.2689 62.7638V62.767Z" fill="#021939"/>
<path d="M82.0964 62.9171C80.9699 62.9171 80.2659 62.4923 79.6547 61.4222V64.8337C79.6547 65.5716 79.8019 65.7025 81.0051 65.7025H81.2643V66.3669H76.4609V65.7025H76.7202C77.9042 65.7025 77.9202 65.5716 77.9202 64.8337V55.9633C77.9202 55.1711 77.8082 55.0401 77.1266 55.0401H76.4609V54.248L79.6579 54.0435V55.3532C80.3043 54.2479 81.0627 53.7656 82.2084 53.7656C84.2405 53.7656 85.8309 55.7588 85.8309 58.3046C85.8309 60.8505 84.2405 62.9171 82.0996 62.9171H82.0964ZM81.8756 54.7622C80.4707 54.7622 79.6387 56.1453 79.6387 58.4324C79.6387 60.5534 80.5091 61.9173 81.818 61.9173C83.1268 61.9173 83.8885 60.5694 83.8885 58.1897C83.8885 56.0303 83.1492 54.759 81.8756 54.759V54.7622Z" fill="#021939"/>
<path d="M92.7013 62.9171C91.5749 62.9171 90.8709 62.4923 90.2597 61.4222V64.8337C90.2597 65.5716 90.4069 65.7025 91.6101 65.7025H91.8693V66.3669H87.0659V65.7025H87.3251C88.5092 65.7025 88.5252 65.5716 88.5252 64.8337V55.9633C88.5252 55.1711 88.4132 55.0401 87.7315 55.0401H87.0659V54.248L90.2628 54.0435V55.3532C90.9093 54.2479 91.6677 53.7656 92.8134 53.7656C94.8454 53.7656 96.4359 55.7588 96.4359 58.3046C96.4359 60.8505 94.8454 62.9171 92.7046 62.9171H92.7013ZM92.4805 54.7622C91.0757 54.7622 90.2436 56.1453 90.2436 58.4324C90.2436 60.5534 91.1109 61.9173 92.4229 61.9173C93.735 61.9173 94.4934 60.5694 94.4934 58.1897C94.4934 56.0303 93.7542 54.759 92.4805 54.759V54.7622Z" fill="#021939"/>
<path d="M101.774 62.9171C99.5561 62.9171 97.7832 60.8888 97.7832 58.3622C97.7832 55.8355 99.5561 53.7688 101.812 53.7688C104.068 53.7688 105.768 55.8163 105.768 58.343C105.768 60.8696 103.995 62.9171 101.774 62.9171ZM101.809 54.561C100.423 54.561 99.7193 55.8515 99.7193 58.3622C99.7193 60.8728 100.439 62.125 101.771 62.125C103.102 62.125 103.822 60.7962 103.822 58.343C103.822 55.8898 103.102 54.561 101.809 54.561Z" fill="#021939"/>
<path d="M113.304 56.4967C112.712 56.4967 112.286 56.0719 112.286 55.4809C112.286 55.1296 112.36 54.9443 112.619 54.6504C111.845 54.7431 111.214 55.3148 110.773 56.3466C110.309 57.3975 110.053 58.7998 110.053 60.1829V61.106C110.053 61.8439 110.258 61.9748 111.438 61.9748H111.79V62.6392H106.856V61.9748H107.115C108.315 61.9748 108.334 61.8439 108.334 61.106V55.9601C108.334 55.1679 108.222 55.0369 107.541 55.0369H106.782V54.2448L110.053 54.0403V56.3274C110.645 54.7047 111.662 53.7624 112.824 53.7624C113.803 53.7624 114.431 54.3534 114.431 55.2382C114.431 55.9952 113.97 56.4935 113.304 56.4935V56.4967Z" fill="#021939"/>
<path d="M119.141 62.9171C118.05 62.9171 117.349 62.4923 117.035 61.7193C116.85 61.2945 116.814 60.8505 116.814 59.544V54.8421H115.301V54.1234C116.795 54.0116 117.611 52.7946 117.794 50.3989H118.552V54.0499H121.269V54.8421H118.552V59.8762C118.552 61.3328 118.792 61.796 119.643 61.796C120.549 61.796 121.029 60.9463 121.083 59.2885H121.858C121.877 59.4737 121.877 59.6015 121.877 59.7133C121.877 61.467 120.971 62.9235 119.141 62.9235V62.9171Z" fill="#021939"/>
<path d="M134.364 62.9171C130.722 62.9171 128.117 60.0775 128.117 56.1102C128.117 52.1429 130.981 49.0445 134.38 49.0445C135.618 49.0445 136.338 49.3224 137.65 50.2807L138.39 49.1915H139.369V54.5227H138.556C138.13 53.1012 137.855 52.3825 137.503 51.7756C136.802 50.5937 135.657 49.9134 134.361 49.9134C131.791 49.9134 130.556 52.1621 130.556 56.1837C130.556 60.2052 131.849 62.0483 134.585 62.0483C136.764 62.0483 138.226 60.793 138.761 57.9341L139.628 58.0811C139.202 61.1795 137.318 62.914 134.361 62.914L134.364 62.9171Z" fill="#021939"/>
<path d="M145.449 62.9171C142.953 62.9171 141.273 61.1635 141.273 58.5825C141.273 55.8163 143.046 53.7688 145.414 53.7688C147.782 53.7688 149.222 55.7237 149.222 58.4899H143.235C143.235 60.8153 144.268 61.9205 145.804 61.9205C147.043 61.9205 147.817 61.3679 148.576 59.9465L149.222 60.2979C148.464 62.0515 147.206 62.9171 145.452 62.9171H145.449ZM145.376 54.561C144.249 54.561 143.251 55.7237 143.251 57.6977H146.486C147.078 57.6977 147.244 57.5508 147.244 57.0142C147.244 55.5384 146.505 54.561 145.379 54.561H145.376Z" fill="#021939"/>
<path d="M156.147 62.6392V61.9748H156.406C157.606 61.9748 157.626 61.8439 157.626 61.106V57.3815C157.626 56.4967 157.498 55.9249 157.219 55.5352C156.941 55.1679 156.387 54.89 155.907 54.89C155.114 54.89 154.282 55.4618 153.891 56.2923C153.686 56.7171 153.558 57.5476 153.558 58.4516V61.1092C153.558 61.8471 153.574 61.978 154.778 61.978H155.037V62.6424H150.361V61.978H150.621C151.805 61.978 151.821 61.8471 151.821 61.1092V55.9633C151.821 55.1711 151.709 55.0401 151.027 55.0401H150.361V54.248L153.558 54.0435V55.5384C154.371 54.3214 155.296 53.7688 156.477 53.7688C157.568 53.7688 158.509 54.3054 158.973 55.1903C159.306 55.8163 159.36 56.1485 159.36 57.4773V61.1124C159.36 61.8503 159.376 61.9812 160.56 61.9812H160.819V62.6456H156.144L156.147 62.6392Z" fill="#021939"/>
<path d="M165.328 62.9171C164.237 62.9171 163.536 62.4923 163.223 61.7193C163.037 61.2945 163.002 60.8505 163.002 59.544V54.8421H161.488V54.1234C162.983 54.0116 163.799 52.7946 163.981 50.3989H164.74V54.0499H167.457V54.8421H164.74V59.8762C164.74 61.3328 164.98 61.796 165.831 61.796C166.737 61.796 167.217 60.9463 167.271 59.2885H168.045C168.065 59.4737 168.065 59.6015 168.065 59.7133C168.065 61.467 167.159 62.9235 165.328 62.9235V62.9171Z" fill="#021939"/>
<path d="M173.255 62.9171C170.759 62.9171 169.079 61.1635 169.079 58.5825C169.079 55.8163 170.852 53.7688 173.22 53.7688C175.588 53.7688 177.028 55.7237 177.028 58.4899H171.041C171.041 60.8153 172.074 61.9205 173.607 61.9205C174.846 61.9205 175.623 61.3679 176.379 59.9465L177.025 60.2979C176.267 62.0515 175.009 62.9171 173.255 62.9171ZM173.182 54.561C172.055 54.561 171.057 55.7237 171.057 57.6977H174.292C174.884 57.6977 175.051 57.5508 175.051 57.0142C175.051 55.5384 174.311 54.561 173.185 54.561H173.182Z" fill="#021939"/>
<path d="M184.583 56.4967C183.991 56.4967 183.566 56.0719 183.566 55.4809C183.566 55.1296 183.639 54.9443 183.899 54.6504C183.124 54.7431 182.494 55.3148 182.052 56.3466C181.588 57.3975 181.332 58.7998 181.332 60.1829V61.106C181.332 61.8439 181.537 61.9748 182.718 61.9748H183.07V62.6392H178.135V61.9748H178.394C179.594 61.9748 179.614 61.8439 179.614 61.106V55.9601C179.614 55.1679 179.502 55.0369 178.82 55.0369H178.062V54.2448L181.332 54.0403V56.3274C181.924 54.7047 182.942 53.7624 184.103 53.7624C185.083 53.7624 185.71 54.3534 185.71 55.2382C185.71 55.9952 185.249 56.4935 184.583 56.4935V56.4967Z" fill="#021939"/>
<path d="M69.7598 35.5264C69.7598 38.0531 68.835 39.9217 66.9821 41.1387C65.1292 42.3558 62.6299 42.9627 59.4778 42.9627H47.3013V42.2408L50.4758 41.7233V16.6548L47.3013 16.1725V15.4155H57.8233C61.4811 15.4155 64.086 15.9265 65.638 16.9487C67.1901 17.9709 67.9677 19.6063 67.9677 21.8551C67.9677 25.1611 65.8748 27.2725 61.6891 28.1925V28.3649C67.0717 29.0773 69.7598 31.4634 69.7598 35.5264ZM57.8233 16.2811H54.2712V28.0902H58.1017C59.9418 28.0902 61.3563 27.5728 62.3451 26.541C63.3339 25.5093 63.83 24.0399 63.83 22.133V21.9253C63.83 18.1593 61.8299 16.2779 57.8265 16.2779L57.8233 16.2811ZM59.4778 28.9495H54.268V42.1385H59.4778C61.4331 42.1385 62.9499 41.57 64.0316 40.4328C65.1132 39.2957 65.654 37.673 65.654 35.5616V35.1815C65.654 33.0924 65.1196 31.5304 64.0508 30.4987C62.9819 29.467 61.4587 28.9495 59.481 28.9495H59.4778Z" fill="#021939"/>
<path d="M77.152 24.7842V37.9732C77.152 40.4743 78.1408 41.7265 80.1185 41.7265C82.0962 41.7265 83.9811 40.5095 85.7763 38.0755V25.8159L83.3602 25.4709V24.781H89.2261V41.9277L91.6422 42.2727V42.9595H85.7763V39.3084C83.9843 41.7425 81.741 42.9595 79.0497 42.9595C77.3952 42.9595 76.0895 42.5538 75.1327 41.7361C74.1791 40.9215 73.7022 39.6886 73.7022 38.0339V25.8095L71.2861 25.4646V24.7746H77.152V24.7842Z" fill="#021939"/>
<path d="M106.789 29.9365H105.275V29.8471C105.275 27.6686 102.603 24.5989 100.286 24.5989C98.1482 24.5989 95.9657 26.0236 95.9657 28.0232C95.9657 30.7351 98.0138 31.2238 100.155 31.7572L102.161 32.2012C105.457 32.7794 107.998 33.8016 107.998 37.8934C107.998 41.2729 104.833 42.9627 100.913 42.9627C98.9514 42.9627 96.3241 42.3398 94.7208 41.0046L93.9816 42.4292H93.252V36.0695H94.9896C95.8793 40.2507 97.7513 42.5187 101.003 42.5187C103.32 42.5187 105.368 40.8736 105.368 38.6504C105.368 36.6476 104.344 35.6702 101.223 34.7375L99.1306 34.2935C96.2793 33.6706 93.4728 32.7826 93.4728 29.4031C93.4728 26.244 96.7241 24.1102 100.244 24.1102C102.251 24.1102 103.809 24.8225 105.278 25.9341L106.068 24.6436H106.792V29.9365H106.789Z" fill="#021939"/>
<path d="M173.047 29.9365H171.534V29.8471C171.534 27.6686 168.862 24.5989 166.545 24.5989C164.407 24.5989 162.224 26.0236 162.224 28.0232C162.224 30.7351 164.273 31.2238 166.413 31.7572L168.42 32.2012C171.716 32.7794 174.257 33.8016 174.257 37.8934C174.257 41.2729 171.092 42.9627 167.172 42.9627C165.21 42.9627 162.583 42.3398 160.98 41.0046L160.24 42.4292H159.511V36.0695H161.248C162.138 40.2507 164.01 42.5187 167.261 42.5187C169.578 42.5187 171.626 40.8736 171.626 38.6504C171.626 36.6476 170.602 35.6702 167.482 34.7375L165.389 34.2935C162.538 33.6706 159.732 32.7826 159.732 29.4031C159.732 26.244 162.983 24.1102 166.503 24.1102C168.51 24.1102 170.068 24.8225 171.537 25.9341L172.327 24.6436H173.051V29.9365H173.047Z" fill="#021939"/>
<path d="M189.79 29.9365H188.277V29.8471C188.277 27.6686 185.605 24.5989 183.288 24.5989C181.15 24.5989 178.968 26.0236 178.968 28.0232C178.968 30.7351 181.016 31.2238 183.157 31.7572L185.163 32.2012C188.459 32.7794 191 33.8016 191 37.8934C191 41.2729 187.835 42.9627 183.915 42.9627C181.953 42.9627 179.326 42.3398 177.723 41.0046L176.984 42.4292H176.254V36.0695H177.992C178.881 40.2507 180.753 42.5187 184.005 42.5187C186.322 42.5187 188.37 40.8736 188.37 38.6504C188.37 36.6476 187.346 35.6702 184.225 34.7375L182.133 34.2935C179.281 33.6706 176.475 32.7826 176.475 29.4031C176.475 26.244 179.726 24.1102 183.246 24.1102C185.253 24.1102 186.811 24.8225 188.28 25.9341L189.07 24.6436H189.794V29.9365H189.79Z" fill="#021939"/>
<path d="M131.423 42.9659V42.2791L133.493 41.9341V29.8119C133.493 27.3108 132.505 26.0587 130.527 26.0587C129.468 26.0587 128.45 26.442 127.474 27.2118C126.495 27.9816 125.627 28.9271 124.869 30.0515V41.9309L126.939 42.2759V42.9627H119.006V42.2759L121.422 41.9309V26.1609L119.006 25.8159V25.126H124.872V28.8441C126.735 26.1577 128.978 24.8161 131.599 24.8161C133.253 24.8161 134.559 25.2282 135.516 26.0555C136.469 26.8796 136.946 28.1094 136.946 29.7385V41.9277L139.362 42.2727V42.9595H131.429L131.423 42.9659Z" fill="#021939"/>
<path d="M149.904 42.2088C150.733 42.2088 151.507 42.0874 152.234 41.8479C152.957 41.6051 153.606 41.2697 154.182 40.8321C155.402 39.9377 156.147 38.791 156.426 37.3887H157.219C156.896 39.1104 156.08 40.4712 154.771 41.4678C153.459 42.4676 151.862 42.9659 149.977 42.9659C147.379 42.9659 145.206 42.1162 143.459 40.4169C141.734 38.7175 140.873 36.4815 140.873 33.7025C140.873 30.9235 141.734 28.7674 143.459 27.0234C145.113 25.324 147.219 24.4743 149.773 24.4743C152.003 24.4743 153.808 25.1739 155.187 26.573C156.589 28.02 157.315 29.8343 157.36 32.0128H144.665V35.421C144.665 37.4654 145.113 39.0944 146.009 40.3114C146.976 41.5732 148.275 42.2056 149.907 42.2056L149.904 42.2088ZM149.731 25.2314C148.189 25.2314 146.995 25.7712 146.144 26.8509C145.292 27.9305 144.809 29.3647 144.694 31.1535H153.562C153.562 27.2054 152.285 25.2314 149.731 25.2314Z" fill="#021939"/>
<path d="M113.864 17.6291L112.689 21.903L113.592 22.3629C113.592 22.3629 117.08 18.4979 118.043 17.6291H113.864ZM115.592 41.9341V25.1611H109.726V25.8511L112.142 26.196V41.9341L109.726 42.2791V42.9691H118.008V42.2791L115.592 41.9341Z" fill="#021939"/>
<path d="M20.5928 28.1829H20.5832L13.9013 32.0543L7.2194 28.1829H7.2098L0.0126953 32.3514V48.0958L6.98579 52.127L7.2194 52.2643L13.9013 48.3993L20.5832 52.2643L20.8136 52.127L27.7867 48.0958V32.3514L20.5928 28.1829ZM27.121 47.7125L20.58 51.4945L14.2341 47.8243L13.9013 47.6327L13.5685 47.8243L7.2226 51.4945L0.678324 47.7125V32.7347L7.213 28.9495L13.5685 32.6293L13.9013 32.8209L14.2341 32.6293L20.5864 28.9495L27.121 32.7347V47.7125Z" fill="#021939"/>
<path d="M20.5867 28.9495L14.2345 32.6293L13.9017 32.8209L13.5689 32.6293L7.21338 28.9495L0.678711 32.7347V47.7125L7.22298 51.4945L13.5689 47.8243L13.9017 47.6327L14.2345 47.8243L20.5803 51.4945L27.1214 47.7125V32.7347L20.5867 28.9495ZM14.2153 45.2018C13.0632 45.2018 12.3208 44.9367 11.4312 44.2084L10.8327 45.1092H10.3175L10.2631 41.3368H10.8327C11.0343 42.3558 11.3128 42.9754 11.8696 43.5983C12.4936 44.2883 13.1944 44.5917 14.1769 44.5917C14.9065 44.5917 15.3449 44.4448 15.7801 44.0615C16.1802 43.7037 16.3786 43.2693 16.3786 42.7391C16.3786 42.2088 16.1642 41.784 15.7673 41.4805C15.4889 41.2697 15.3961 41.2442 14.4137 40.9918L13.156 40.6724C11.2072 40.1709 10.4903 39.4554 10.4903 38.0148C10.4903 36.3601 11.6584 35.2454 13.3928 35.2454C14.3369 35.2454 15.1849 35.5648 15.8057 36.1589L16.337 35.3667H16.8298L16.9866 38.8069H16.417C16.2442 38.133 16.0074 37.5772 15.6233 37.0341C15.0921 36.2803 14.3369 35.881 13.4056 35.881C12.2792 35.881 11.524 36.5167 11.524 37.443C11.524 38.2511 12.0808 38.7686 13.2616 39.0721L14.6793 39.4298C15.7417 39.6949 16.257 39.9185 16.6154 40.2635C17.1338 40.765 17.4122 41.4678 17.4122 42.2887C17.4122 44.0615 16.1642 45.2018 14.2153 45.2018Z" fill="white"/>
<path d="M16.6154 40.2635C16.257 39.9185 15.7418 39.6949 14.6794 39.4298L13.2617 39.0721C12.0809 38.7686 11.524 38.2511 11.524 37.443C11.524 36.5167 12.2793 35.881 13.4057 35.881C14.337 35.881 15.0922 36.2803 15.6234 37.0341C16.0074 37.5772 16.2442 38.133 16.417 38.8069H16.9867L16.8299 35.3667H16.337L15.8058 36.1589C15.185 35.5648 14.337 35.2454 13.3929 35.2454C11.6584 35.2454 10.4904 36.3602 10.4904 38.0148C10.4904 39.4554 11.2072 40.1709 13.1561 40.6724L14.4138 40.9918C15.3962 41.2442 15.489 41.2697 15.7674 41.4805C16.1642 41.784 16.3786 42.2216 16.3786 42.7391C16.3786 43.2565 16.1802 43.7037 15.7802 44.0615C15.345 44.4448 14.9066 44.5917 14.1769 44.5917C13.1945 44.5917 12.4937 44.2883 11.8696 43.5983C11.3128 42.9754 11.0344 42.3558 10.8328 41.3368H10.2632L10.3176 45.1092H10.8328L11.4312 44.2084C12.3209 44.9367 13.0633 45.2018 14.2153 45.2018C16.1642 45.2018 17.4123 44.0615 17.4123 42.2887C17.4123 41.4678 17.1339 40.765 16.6154 40.2635Z" fill="#021939"/>
<path d="M13.6905 14.3358H12.3784V10.2887H13.5945C14.9673 10.2887 15.6522 10.9339 15.6522 12.2212V12.2947C15.6522 12.9463 15.4825 13.451 15.1433 13.8024C14.8041 14.1569 14.3209 14.3358 13.6905 14.3358Z" fill="#021939"/>
<path d="M15.729 15.1599C16.097 15.5145 16.2794 16.0511 16.2794 16.7666V16.8944C16.2794 17.6195 16.0938 18.1753 15.7226 18.565C15.3513 18.9547 14.8329 19.1495 14.1641 19.1495H12.3784V14.6297H14.1641C14.8393 14.6297 15.3641 14.8054 15.729 15.1599Z" fill="#021939"/>
<path d="M13.8854 0L0 8.03354V24.0271L7.1747 28.1829L7.2867 28.119L13.8374 24.337L13.8534 24.3434L13.8854 24.3242L13.9174 24.3434L13.9302 24.337L20.4809 28.119L20.5929 28.1829L27.7708 24.0271V8.03354L13.8854 0ZM16.7335 18.8077C16.0999 19.223 15.2422 19.4306 14.1638 19.4306H9.99082V19.1847L11.0757 19.0058V10.4164L9.99082 10.2535V9.99161H13.5942C14.8486 9.99161 15.7415 10.1673 16.2727 10.5187C16.8039 10.8668 17.0695 11.429 17.0695 12.1988C17.0695 13.3328 16.3527 14.0547 14.919 14.3709V14.4284C16.7623 14.6744 17.6839 15.4921 17.6839 16.8848C17.6839 17.7504 17.3671 18.3893 16.7335 18.8077Z" fill="#021939"/>
<path d="M20.7145 52.3442L20.5673 52.2643L13.8854 56.1358L7.2035 52.2643L7.0563 52.3442L0 56.4328V71.9665L13.8854 80L27.7708 71.9665V56.4328L20.7145 52.3442ZM14.1894 70.446C11.5749 70.446 9.70601 68.4049 9.70601 65.562C9.70601 62.7191 11.7605 60.4895 14.2022 60.4895C15.0886 60.4895 15.6071 60.6907 16.5479 61.3775L17.0791 60.5981H17.7831V64.4216H17.1975C16.8935 63.4027 16.6951 62.8852 16.4423 62.4508C15.9399 61.6043 15.1174 61.1124 14.1894 61.1124C12.3461 61.1124 11.4565 62.7287 11.4565 65.6131C11.4565 68.4975 12.3845 69.8231 14.3462 69.8231C15.9111 69.8231 16.9607 68.9223 17.3447 66.8716L17.9688 66.977C17.6615 69.2002 16.3111 70.446 14.1894 70.446Z" fill="#021939"/>
<path d="M14.9194 14.4284V14.3709C16.3531 14.0547 17.0699 13.3328 17.0699 12.1988C17.0699 11.429 16.8043 10.8668 16.2731 10.5187C15.7419 10.1673 14.849 9.99162 13.5946 9.99162H9.99121V10.2535L11.0761 10.4165V19.0058L9.99121 19.1847V19.4306H14.1642C15.2426 19.4306 16.1003 19.223 16.7339 18.8077C17.3675 18.3893 17.6843 17.7504 17.6843 16.8848C17.6843 15.4921 16.7627 14.6744 14.9194 14.4284ZM12.3785 10.2887H13.5946C14.9674 10.2887 15.6522 10.9339 15.6522 12.2212V12.2947C15.6522 12.9463 15.4826 13.451 15.1434 13.8024C14.8042 14.1569 14.321 14.3358 13.6906 14.3358H12.3785V10.2887ZM16.2795 16.8944C16.2795 17.6195 16.0939 18.1753 15.7226 18.565C15.3514 18.9547 14.833 19.1495 14.1642 19.1495H12.3785V14.6297H14.1642C14.8394 14.6297 15.3642 14.8054 15.7291 15.1599C16.0971 15.5145 16.2795 16.0511 16.2795 16.7666V16.8944Z" fill="white"/>
<path d="M17.9688 66.977C17.6616 69.2002 16.3111 70.446 14.1894 70.446C11.5749 70.446 9.70605 68.4049 9.70605 65.562C9.70605 62.7191 11.7605 60.4895 14.2022 60.4895C15.0887 60.4895 15.6071 60.6908 16.5479 61.3775L17.0792 60.5981H17.7832V64.4216H17.1976C16.8936 63.4027 16.6951 62.8852 16.4423 62.4508C15.9399 61.6043 15.1175 61.1124 14.1894 61.1124C12.3462 61.1124 11.4565 62.7287 11.4565 65.6131C11.4565 68.4975 12.3846 69.8231 14.3462 69.8231C15.9111 69.8231 16.9608 68.9223 17.3448 66.8716L17.9688 66.977Z" fill="white"/>
</svg>
