<svg width="96" height="40" viewBox="0 0 96 40" fill="none" xmlns="http://www.w3.org/2000/svg">
<path d="M29.8883 31.4586C29.0792 31.4586 28.5597 31.2749 27.9372 30.767L27.519 31.3947H27.1571L27.1201 28.7658H27.519C27.6589 29.4765 27.8536 29.9093 28.2444 30.3422C28.6803 30.8213 29.1725 31.0337 29.8609 31.0337C30.3724 31.0337 30.678 30.9315 30.9852 30.6648C31.2635 30.4156 31.4034 30.1106 31.4034 29.7416C31.4034 29.3727 31.2554 29.0772 30.9772 28.8648C30.7825 28.7179 30.7166 28.6987 30.0298 28.523L29.1468 28.301C27.7812 27.9513 27.2794 27.453 27.2794 26.4468C27.2794 25.2936 28.0964 24.519 29.314 24.519C29.9735 24.519 30.5686 24.741 31.0045 25.1547L31.3761 24.6021H31.7203L31.8312 26.9994H31.4324C31.3117 26.5282 31.1444 26.1417 30.8758 25.7632C30.5043 25.2378 29.9751 24.9599 29.3253 24.9599C28.5355 24.9599 28.0064 25.4023 28.0064 26.0475C28.0064 26.6097 28.3956 26.9706 29.2224 27.1815L30.2164 27.4306C30.9595 27.6143 31.3214 27.7724 31.5723 28.012C31.9342 28.3617 32.1288 28.852 32.1288 29.4238C32.1288 30.66 31.2554 31.4522 29.8915 31.4522L29.8883 31.4586Z" fill="white"/>
<path d="M36.3238 31.3832V30.6182C35.9152 31.2091 35.4874 31.4583 34.8746 31.4583C34.3164 31.4583 33.8709 31.2459 33.62 30.8674C33.48 30.6549 33.443 30.4441 33.443 29.973V27.9814C33.443 27.5853 33.3867 27.5198 33.0441 27.5198H32.6919V27.1237L34.3164 27.0215V29.834C34.3164 30.3419 34.3357 30.4329 34.4564 30.6086C34.577 30.7923 34.8183 30.8945 35.1062 30.8945C35.5614 30.8945 35.9329 30.6549 36.1275 30.2493C36.2675 29.9442 36.3222 29.6408 36.3222 29.1153V27.9814C36.3222 27.5853 36.2659 27.5198 35.9233 27.5198H35.4488V27.1237L37.1955 27.0215V30.2493C37.1955 30.8402 37.2695 30.9217 37.781 30.9217H38.0142V31.3177L36.3238 31.3816V31.3832Z" fill="white"/>
<path d="M41.2631 31.4586C40.697 31.4586 40.3431 31.2462 40.0359 30.7111V32.4169C40.0359 32.7858 40.1099 32.8513 40.7147 32.8513H40.8449V33.1835H38.4307V32.8513H38.561C39.1561 32.8513 39.1641 32.7858 39.1641 32.4169V27.9816C39.1641 27.5855 39.1078 27.5201 38.7652 27.5201H38.4307V27.124L40.0375 27.0218V27.6766C40.3624 27.124 40.7436 26.8828 41.3194 26.8828C42.3408 26.8828 43.1402 27.8794 43.1402 29.1523C43.1402 30.4252 42.3408 31.4586 41.2647 31.4586H41.2631ZM41.1522 27.3811C40.446 27.3811 40.0279 28.0727 40.0279 29.2162C40.0279 30.2767 40.4653 30.9587 41.1232 30.9587C41.7811 30.9587 42.1639 30.2847 42.1639 29.0948C42.1639 28.0152 41.7923 27.3795 41.1522 27.3795V27.3811Z" fill="white"/>
<path d="M46.5937 31.4586C46.0275 31.4586 45.6737 31.2462 45.3665 30.7111V32.4169C45.3665 32.7858 45.4404 32.8513 46.0452 32.8513H46.1755V33.1835H43.7612V32.8513H43.8915C44.4866 32.8513 44.4947 32.7858 44.4947 32.4169V27.9816C44.4947 27.5855 44.4384 27.5201 44.0958 27.5201H43.7612V27.124L45.3681 27.0218V27.6766C45.693 27.124 46.0742 26.8828 46.65 26.8828C47.6714 26.8828 48.4708 27.8794 48.4708 29.1523C48.4708 30.4252 47.6714 31.4586 46.5953 31.4586H46.5937ZM46.4827 27.3811C45.7766 27.3811 45.3584 28.0727 45.3584 29.2162C45.3584 30.2767 45.7943 30.9587 46.4538 30.9587C47.1132 30.9587 47.4944 30.2847 47.4944 29.0948C47.4944 28.0152 47.1229 27.3795 46.4827 27.3795V27.3811Z" fill="white"/>
<path d="M51.1532 31.4589C50.0385 31.4589 49.1475 30.4448 49.1475 29.1814C49.1475 27.9181 50.0385 26.8848 51.1725 26.8848C52.3064 26.8848 53.1605 27.9085 53.1605 29.1718C53.1605 30.4352 52.2695 31.4589 51.1532 31.4589ZM51.1709 27.2809C50.4744 27.2809 50.1206 27.9261 50.1206 29.1814C50.1206 30.4368 50.4825 31.0628 51.1516 31.0628C51.8207 31.0628 52.1826 30.3984 52.1826 29.1718C52.1826 27.9453 51.8207 27.2809 51.1709 27.2809Z" fill="white"/>
<path d="M56.9489 28.2485C56.6513 28.2485 56.4374 28.0361 56.4374 27.7406C56.4374 27.5649 56.4744 27.4723 56.6047 27.3253C56.2155 27.3717 55.8986 27.6575 55.6766 28.1734C55.4434 28.6989 55.3147 29.4 55.3147 30.0916V30.5531C55.3147 30.9221 55.4177 30.9876 56.0112 30.9876H56.1881V31.3198H53.7079V30.9876H53.8382C54.4413 30.9876 54.451 30.9221 54.451 30.5531V27.9802C54.451 27.5841 54.3947 27.5186 54.0521 27.5186H53.6709V27.1225L55.3147 27.0203V28.1638C55.6123 27.3525 56.1238 26.8813 56.7076 26.8813C57.1998 26.8813 57.5151 27.1768 57.5151 27.6192C57.5151 27.9977 57.2835 28.2469 56.9489 28.2469V28.2485Z" fill="white"/>
<path d="M59.8823 31.4583C59.3338 31.4583 58.9816 31.2459 58.8239 30.8594C58.7306 30.647 58.7129 30.425 58.7129 29.7718V27.4208H57.9521V27.0615C58.7033 27.0056 59.1134 26.3971 59.2051 25.1992H59.5863V27.0247H60.9519V27.4208H59.5863V29.9379C59.5863 30.6662 59.707 30.8978 60.1348 30.8978C60.59 30.8978 60.8313 30.4729 60.8586 29.644H61.2478C61.2575 29.7367 61.2575 29.8005 61.2575 29.8564C61.2575 30.7333 60.8023 31.4615 59.8823 31.4615V31.4583Z" fill="white"/>
<path d="M67.5337 31.4588C65.7033 31.4588 64.394 30.0389 64.394 28.0553C64.394 26.0717 65.8336 24.5225 67.5418 24.5225C68.1642 24.5225 68.5261 24.6614 69.1856 25.1405L69.5572 24.5959H70.0493V27.2615H69.6408C69.4269 26.5508 69.2885 26.1915 69.1116 25.888C68.7594 25.2971 68.1835 24.9569 67.5321 24.9569C66.2405 24.9569 65.6197 26.0813 65.6197 28.092C65.6197 30.1028 66.2695 31.0244 67.6447 31.0244C68.7401 31.0244 69.4751 30.3967 69.7437 28.9673L70.1796 29.0407C69.9657 30.5899 69.0183 31.4572 67.5321 31.4572L67.5337 31.4588Z" fill="white"/>
<path d="M73.1054 31.4589C71.8508 31.4589 71.0063 30.5821 71.0063 29.2916C71.0063 27.9085 71.8974 26.8848 73.0877 26.8848C74.2779 26.8848 75.0017 27.8622 75.0017 29.2453H71.9923C71.9923 30.408 72.5118 30.9606 73.2839 30.9606C73.9064 30.9606 74.2956 30.6843 74.6768 29.9736L75.0017 30.1493C74.6205 31.0261 73.9884 31.4589 73.107 31.4589H73.1054ZM73.0684 27.2809C72.5022 27.2809 72.0004 27.8622 72.0004 28.8492H73.6265C73.9241 28.8492 74.0077 28.7758 74.0077 28.5074C74.0077 27.7696 73.6361 27.2809 73.07 27.2809H73.0684Z" fill="white"/>
<path d="M78.4823 31.32V30.9878H78.6126C79.2157 30.9878 79.2254 30.9223 79.2254 30.5534V28.6911C79.2254 28.2487 79.161 27.9628 79.0211 27.768C78.8812 27.5843 78.6029 27.4454 78.3617 27.4454C77.9628 27.4454 77.5446 27.7312 77.3483 28.1465C77.2454 28.3589 77.1811 28.7742 77.1811 29.2262V30.555C77.1811 30.9239 77.1891 30.9894 77.7939 30.9894H77.9242V31.3216H75.5742V30.9894H75.7045C76.2996 30.9894 76.3077 30.9239 76.3077 30.555V27.982C76.3077 27.5859 76.2514 27.5204 75.9088 27.5204H75.5742V27.1243L77.1811 27.0221V27.7696C77.5896 27.1611 78.0544 26.8848 78.648 26.8848C79.1964 26.8848 79.6693 27.1531 79.9025 27.5955C80.0698 27.9085 80.0972 28.0746 80.0972 28.739V30.5566C80.0972 30.9255 80.1052 30.991 80.7003 30.991H80.8306V31.3232H78.4807L78.4823 31.32Z" fill="white"/>
<path d="M83.0971 31.4583C82.5486 31.4583 82.1964 31.2459 82.0388 30.8594C81.9455 30.647 81.9278 30.425 81.9278 29.7718V27.4208H81.167V27.0615C81.9181 27.0056 82.3283 26.3971 82.42 25.1992H82.8012V27.0247H84.1667V27.4208H82.8012V29.9379C82.8012 30.6662 82.9218 30.8978 83.3497 30.8978C83.8048 30.8978 84.0461 30.4729 84.0735 29.644H84.4627C84.4723 29.7367 84.4723 29.8005 84.4723 29.8564C84.4723 30.7333 84.0172 31.4615 83.0971 31.4615V31.4583Z" fill="white"/>
<path d="M87.0814 31.4589C85.8269 31.4589 84.9824 30.5821 84.9824 29.2916C84.9824 27.9085 85.8735 26.8848 87.0637 26.8848C88.254 26.8848 88.9778 27.8622 88.9778 29.2453H85.9684C85.9684 30.408 86.4879 30.9606 87.2584 30.9606C87.8808 30.9606 88.2717 30.6843 88.6513 29.9736L88.9762 30.1493C88.595 31.0261 87.9629 31.4589 87.0814 31.4589ZM87.0444 27.2809C86.4783 27.2809 85.9764 27.8622 85.9764 28.8492H87.6026C87.9001 28.8492 87.9838 28.7758 87.9838 28.5074C87.9838 27.7696 87.6122 27.2809 87.046 27.2809H87.0444Z" fill="white"/>
<path d="M92.7751 28.2485C92.4775 28.2485 92.2636 28.0361 92.2636 27.7406C92.2636 27.5649 92.3006 27.4723 92.4309 27.3253C92.0416 27.3717 91.7248 27.6575 91.5028 28.1734C91.2696 28.6989 91.1409 29.4 91.1409 30.0916V30.5531C91.1409 30.9221 91.2438 30.9876 91.8374 30.9876H92.0143V31.3198H89.5341V30.9876H89.6644C90.2675 30.9876 90.2772 30.9221 90.2772 30.5531V27.9802C90.2772 27.5841 90.2209 27.5186 89.8783 27.5186H89.4971V27.1225L91.1409 27.0203V28.1638C91.4385 27.3525 91.9499 26.8813 92.5338 26.8813C93.026 26.8813 93.3413 27.1768 93.3413 27.6192C93.3413 27.9977 93.1096 28.2469 92.7751 28.2469V28.2485Z" fill="white"/>
<path d="M35.063 17.7635C35.063 19.0268 34.5981 19.9612 33.6668 20.5697C32.7355 21.1782 31.4794 21.4816 29.895 21.4816H23.7749V21.1207L25.3705 20.8619V8.32769L23.7749 8.08653V7.70801H29.0635C30.9019 7.70801 32.2112 7.96355 32.9913 8.47463C33.7714 8.98571 34.1622 9.80344 34.1622 10.9278C34.1622 12.5808 33.1103 13.6365 31.0065 14.0965V14.1828C33.7119 14.5389 35.063 15.732 35.063 17.7635ZM29.0635 8.14083H27.2781V14.0454H29.2034C30.1283 14.0454 30.8392 13.7867 31.3362 13.2708C31.8332 12.7549 32.0825 12.0202 32.0825 11.0668V10.9629C32.0825 9.07994 31.0772 8.13923 29.0651 8.13923L29.0635 8.14083ZM29.895 14.475H27.2765V21.0696H29.895C30.8778 21.0696 31.6402 20.7853 32.1838 20.2167C32.7275 19.6481 32.9993 18.8368 32.9993 17.7811V17.591C32.9993 16.5465 32.7307 15.7655 32.1935 15.2496C31.6563 14.7338 30.8907 14.475 29.8966 14.475H29.895Z" fill="white"/>
<path d="M38.7779 12.3925V18.987C38.7779 20.2376 39.2749 20.8636 40.2689 20.8636C41.2629 20.8636 42.2103 20.2551 43.1126 19.0381V12.9084L41.8983 12.7359V12.3909H44.8465V20.9643L46.0609 21.1367V21.4801H43.1126V19.6546C42.2119 20.8716 41.0844 21.4801 39.7317 21.4801C38.9001 21.4801 38.2439 21.2773 37.7629 20.8684C37.2836 20.4612 37.044 19.8447 37.044 19.0174V12.9052L35.8296 12.7327V12.3877H38.7779V12.3925Z" fill="white"/>
<path d="M53.6743 14.9683H52.9135V14.9236C52.9135 13.8344 51.5705 12.2995 50.406 12.2995C49.3315 12.2995 48.2346 13.0119 48.2346 14.0117C48.2346 15.3676 49.264 15.612 50.34 15.8787L51.3485 16.1007C53.0052 16.3898 54.2823 16.9009 54.2823 18.9468C54.2823 20.6365 52.6916 21.4814 50.7212 21.4814C49.7352 21.4814 48.4147 21.17 47.6089 20.5024L47.2373 21.2147H46.8706V18.0348H47.744C48.1911 20.1254 49.1321 21.2594 50.7663 21.2594C51.9308 21.2594 52.9602 20.4369 52.9602 19.3253C52.9602 18.3239 52.4455 17.8352 50.8772 17.3688L49.8253 17.1468C48.3922 16.8354 46.9816 16.3914 46.9816 14.7016C46.9816 13.1221 48.6158 12.0552 50.3851 12.0552C51.3936 12.0552 52.1769 12.4113 52.9151 12.9671L53.3124 12.3219H53.6759V14.9683H53.6743Z" fill="white"/>
<path d="M86.9771 14.9683H86.2163V14.9236C86.2163 13.8344 84.8732 12.2995 83.7087 12.2995C82.6343 12.2995 81.5373 13.0119 81.5373 14.0117C81.5373 15.3676 82.5667 15.612 83.6428 15.8787L84.6512 16.1007C86.3079 16.3898 87.5851 16.9009 87.5851 18.9468C87.5851 20.6365 85.9943 21.4814 84.024 21.4814C83.038 21.4814 81.7174 21.17 80.9116 20.5024L80.5401 21.2147H80.1733V18.0348H81.0467C81.4939 20.1254 82.4348 21.2594 84.069 21.2594C85.2335 21.2594 86.2629 20.4369 86.2629 19.3253C86.2629 18.3239 85.7482 17.8352 84.18 17.3688L83.1281 17.1468C81.6949 16.8354 80.2843 16.3914 80.2843 14.7016C80.2843 13.1221 81.9185 12.0552 83.6878 12.0552C84.6963 12.0552 85.4796 12.4113 86.2179 12.9671L86.6152 12.3219H86.9787V14.9683H86.9771Z" fill="white"/>
<path d="M95.3921 14.9683H94.6313V14.9236C94.6313 13.8344 93.2883 12.2995 92.1237 12.2995C91.0493 12.2995 89.9523 13.0119 89.9523 14.0117C89.9523 15.3676 90.9817 15.612 92.0578 15.8787L93.0663 16.1007C94.723 16.3898 96.0001 16.9009 96.0001 18.9468C96.0001 20.6365 94.4093 21.4814 92.439 21.4814C91.453 21.4814 90.1325 21.17 89.3266 20.5024L88.9551 21.2147H88.5884V18.0348H89.4618C89.9089 20.1254 90.8498 21.2594 92.484 21.2594C93.6485 21.2594 94.6779 20.4369 94.6779 19.3253C94.6779 18.3239 94.1632 17.8352 92.595 17.3688L91.5431 17.1468C90.11 16.8354 88.6994 16.3914 88.6994 14.7016C88.6994 13.1221 90.3335 12.0552 92.1028 12.0552C93.1113 12.0552 93.8946 12.4113 94.6329 12.9671L95.0302 12.3219H95.3937V14.9683H95.3921Z" fill="white"/>
<path d="M66.0557 21.4831V21.1397L67.0964 20.9672V14.9061C67.0964 13.6556 66.5994 13.0295 65.6053 13.0295C65.0729 13.0295 64.5615 13.2211 64.0709 13.606C63.5787 13.991 63.1428 14.4637 62.7616 15.0259V20.9656L63.8023 21.1381V21.4815H59.8149V21.1381L61.0293 20.9656V13.0806L59.8149 12.9081V12.5631H62.7632V14.4222C63.6993 13.079 64.8269 12.4082 66.1442 12.4082C66.9757 12.4082 67.632 12.6142 68.1129 13.0279C68.5922 13.4399 68.8319 14.0548 68.8319 14.8694V20.964L70.0463 21.1365V21.4799H66.0589L66.0557 21.4831Z" fill="white"/>
<path d="M75.3447 21.1045C75.7613 21.1045 76.1505 21.0439 76.5156 20.9241C76.8792 20.8027 77.2057 20.635 77.4952 20.4162C78.108 19.969 78.4828 19.3956 78.6227 18.6945H79.0216C78.8591 19.5553 78.449 20.2357 77.7911 20.734C77.1317 21.2339 76.3291 21.4831 75.3817 21.4831C74.0756 21.4831 72.9835 21.0582 72.1053 20.2086C71.2383 19.3589 70.8057 18.2409 70.8057 16.8514C70.8057 15.4619 71.2383 14.3838 72.1053 13.5118C72.9368 12.6621 73.9952 12.2373 75.2787 12.2373C76.3998 12.2373 77.307 12.5871 78.0002 13.2866C78.7047 14.0101 79.0698 14.9173 79.0924 16.0065H72.7117V17.7107C72.7117 18.7328 72.9369 19.5473 73.3872 20.1559C73.873 20.7867 74.526 21.1029 75.3463 21.1029L75.3447 21.1045ZM75.2578 12.6158C74.4826 12.6158 73.8826 12.8857 73.4548 13.4256C73.0269 13.9654 72.7841 14.6825 72.7261 15.5769H77.1831C77.1831 13.6028 76.5414 12.6158 75.2578 12.6158Z" fill="white"/>
<path d="M57.2301 8.81445L56.6398 10.9514L57.0934 11.1814C57.0934 11.1814 58.8466 9.24887 59.3307 8.81445H57.2301ZM58.0987 20.967V12.5805H55.1504V12.9255L56.3648 13.0979V20.967L55.1504 21.1395V21.4844H59.313V21.1395L58.0987 20.967Z" fill="white"/>
<path d="M10.3503 14.0918H10.3454L6.987 16.0275L3.62856 14.0918H3.62374L0.00634766 16.176V24.0483L3.51115 26.0638L3.62856 26.1325L6.987 24.2L10.3454 26.1325L10.4612 26.0638L13.966 24.0483V16.176L10.3503 14.0918ZM13.6315 23.8566L10.3438 25.7476L7.15428 23.9125L6.987 23.8167L6.81972 23.9125L3.63017 25.7476L0.340904 23.8566V16.3677L3.62535 14.4751L6.81972 16.315L6.987 16.4108L7.15428 16.315L10.347 14.4751L13.6315 16.3677V23.8566Z" fill="white"/>
<path d="M8.35097 20.1316C8.17082 19.9592 7.91186 19.8474 7.37786 19.7148L6.66532 19.5359C6.0718 19.3842 5.79193 19.1255 5.79193 18.7214C5.79193 18.2582 6.17152 17.9404 6.7377 17.9404C7.20575 17.9404 7.58535 18.14 7.85235 18.5169C8.04536 18.7885 8.16439 19.0664 8.25124 19.4034H8.53755L8.45873 17.6832H8.21103L7.94403 18.0793C7.63199 17.7823 7.20575 17.6226 6.73126 17.6226C5.85948 17.6226 5.2724 18.18 5.2724 19.0073C5.2724 19.7276 5.63269 20.0853 6.61224 20.3361L7.24436 20.4958C7.73815 20.622 7.78479 20.6347 7.92473 20.7401C8.12417 20.8919 8.23194 21.1107 8.23194 21.3694C8.23194 21.6281 8.13222 21.8517 7.93116 22.0306C7.71241 22.2223 7.49206 22.2957 7.12533 22.2957C6.63154 22.2957 6.27929 22.144 5.96564 21.799C5.68577 21.4876 5.54584 21.1778 5.44451 20.6683H5.1582L5.18555 22.5545H5.44451L5.74529 22.1041C6.19243 22.4682 6.56559 22.6008 7.14463 22.6008C8.12417 22.6008 8.75147 22.0306 8.75147 21.1442C8.75147 20.7338 8.61153 20.3824 8.35097 20.1316Z" fill="white"/>
<path d="M6.88114 7.16809H6.22168V5.14453H6.83289C7.52291 5.14453 7.86712 5.46715 7.86712 6.11079V6.14753C7.86712 6.47334 7.78187 6.72569 7.61138 6.90137C7.44088 7.07865 7.19801 7.16809 6.88114 7.16809Z" fill="white"/>
<path d="M7.90572 7.58006C8.09069 7.75735 8.18237 8.02566 8.18237 8.38342V8.4473C8.18237 8.80985 8.08908 9.08775 7.9025 9.2826C7.71592 9.47745 7.45536 9.57487 7.11919 9.57487H6.22168V7.31494H7.11919C7.45857 7.31494 7.72236 7.40278 7.90572 7.58006Z" fill="white"/>
<path d="M6.97904 0L0 4.01677V12.0136L3.60613 14.0914L3.66243 14.0595L6.95491 12.1685L6.96296 12.1717L6.97904 12.1621L6.99512 12.1717L7.00156 12.1685L10.294 14.0595L10.3503 14.0914L13.9581 12.0136V4.01677L6.97904 0ZM8.41056 9.40387C8.09208 9.6115 7.66102 9.71531 7.11898 9.71531H5.02156V9.59233L5.56683 9.50289V5.20822L5.02156 5.12677V4.99581H6.83267C7.46318 4.99581 7.91194 5.08365 8.17894 5.25933C8.44594 5.43342 8.57944 5.71451 8.57944 6.09942C8.57944 6.6664 8.21915 7.02735 7.49857 7.18547V7.21421C8.42503 7.33719 8.88826 7.74606 8.88826 8.4424C8.88826 8.87522 8.72903 9.19465 8.41056 9.40387Z" fill="white"/>
<path d="M10.4115 26.1718L10.3375 26.1318L6.97904 28.0676L3.62061 26.1318L3.54662 26.1718L0 28.2161V35.9829L6.97904 39.9997L13.9581 35.9829V28.2161L10.4115 26.1718ZM7.13184 35.2227C5.81774 35.2227 4.87841 34.2021 4.87841 32.7807C4.87841 31.3592 5.91103 30.2444 7.13828 30.2444C7.58382 30.2444 7.84438 30.345 8.31727 30.6884L8.58427 30.2987H8.93813V32.2105H8.64378C8.49098 31.701 8.39125 31.4423 8.26419 31.2251C8.01166 30.8018 7.59829 30.5559 7.13184 30.5559C6.20538 30.5559 5.75823 31.364 5.75823 32.8062C5.75823 34.2484 6.22468 34.9112 7.21066 34.9112C7.99719 34.9112 8.52476 34.4608 8.71777 33.4355L9.03142 33.4882C8.877 34.5998 8.19824 35.2227 7.13184 35.2227Z" fill="white"/>
<path d="M7.49849 7.2145V7.18575C8.21907 7.02764 8.57936 6.66669 8.57936 6.09971C8.57936 5.7148 8.44586 5.43371 8.17886 5.25962C7.91186 5.08394 7.4631 4.99609 6.83259 4.99609H5.02148V5.12706L5.56675 5.20851V9.50318L5.02148 9.59262V9.7156H7.1189C7.66094 9.7156 8.09201 9.61178 8.41048 9.40416C8.72895 9.19494 8.88819 8.87551 8.88819 8.44269C8.88819 7.74634 8.42495 7.33748 7.49849 7.2145ZM6.22138 5.14463H6.83259C7.52262 5.14463 7.86682 5.46725 7.86682 6.11089V6.14762C7.86682 6.47343 7.78157 6.72578 7.61108 6.90146C7.44058 7.07874 7.19771 7.16818 6.88085 7.16818H6.22138V5.14463ZM8.18208 8.44748C8.18208 8.81003 8.08879 9.08793 7.90221 9.28278C7.71563 9.47763 7.45506 9.57505 7.1189 9.57505H6.22138V7.31512H7.1189C7.45828 7.31512 7.72206 7.40296 7.90543 7.58024C8.0904 7.75752 8.18208 8.02584 8.18208 8.3836V8.44748Z" fill="#021939"/>
<path d="M9.03142 33.4889C8.87701 34.6005 8.19825 35.2234 7.13185 35.2234C5.81775 35.2234 4.87842 34.2028 4.87842 32.7814C4.87842 31.3599 5.91104 30.2451 7.13828 30.2451C7.58382 30.2451 7.84439 30.3457 8.31727 30.6891L8.58427 30.2994H8.93813V32.2112H8.64379C8.49098 31.7017 8.39126 31.443 8.26419 31.2258C8.01167 30.8025 7.5983 30.5566 7.13185 30.5566C6.20538 30.5566 5.75824 31.3647 5.75824 32.8069C5.75824 34.2491 6.22469 34.9119 7.21066 34.9119C7.99719 34.9119 8.52476 34.4615 8.71777 33.4362L9.03142 33.4889Z" fill="#021939"/>
</svg>
